<?xml version="1.0"?><svg width="1600" height="1200" xmlns="http://www.w3.org/2000/svg" xmlns:xlink="http://www.w3.org/1999/xlink">
 <title>Palace Crown 2</title>
 <defs>
  <linearGradient xlink:href="#linearGradient4285" id="linearGradient4790" gradientUnits="userSpaceOnUse" x1="762.21735" y1="214.54652" x2="839.51965" y2="215.37773" gradientTransform="translate(-138.25226,294.44759)"/>
  <linearGradient id="linearGradient4285">
   <stop id="stop4287" offset="0" stop-color="#bda73b"/>
   <stop offset="0.5" id="stop4289" stop-color="#e1cc68"/>
   <stop id="stop4291" offset="1" stop-color="#bda73b"/>
  </linearGradient>
  <linearGradient xlink:href="#linearGradient15687" id="linearGradient4827" gradientUnits="userSpaceOnUse" x1="648.8454" y1="235.10136" x2="716.63324" y2="250.38293" gradientTransform="translate(-138.25226,294.44759)"/>
  <linearGradient id="linearGradient15687">
   <stop id="stop15689" offset="0" stop-color="#e1cc68"/>
   <stop offset="0.545455" id="stop4414" stop-color="#e1cc68"/>
   <stop id="stop15691" offset="1" stop-color="#897827"/>
  </linearGradient>
  <linearGradient xlink:href="#linearGradient15687" id="linearGradient4842" gradientUnits="userSpaceOnUse" x1="524.48816" y1="223.64992" x2="629.56976" y2="262.44159" gradientTransform="translate(-138.25226,294.44759)"/>
  <linearGradient id="linearGradient5682">
   <stop id="stop5684" offset="0" stop-color="#e1cc68"/>
   <stop offset="0.545455" id="stop5686" stop-color="#e1cc68"/>
   <stop id="stop5688" offset="1" stop-color="#897827"/>
  </linearGradient>
  <linearGradient xlink:href="#linearGradient4316" id="linearGradient4851" gradientUnits="userSpaceOnUse" x1="631.625" y1="407.0625" x2="970.75" y2="407.0625" gradientTransform="translate(-138.25226,294.44759)"/>
  <linearGradient id="linearGradient4316">
   <stop offset="0" id="stop4318" stop-color="#695c19"/>
   <stop id="stop4320" offset="0.309917" stop-color="#e1cd68"/>
   <stop offset="0.412459" id="stop4375" stop-color="#e5d37c"/>
   <stop id="stop4377" offset="0.510383" stop-color="#a89431"/>
   <stop offset="1" id="stop4323" stop-color="#6b5b19"/>
  </linearGradient>
  <linearGradient xlink:href="#linearGradient13888" id="linearGradient4856" gradientUnits="userSpaceOnUse" gradientTransform="matrix(1.3290549,0,0,1.3290549,322.93061,312.94114)" x1="257.33499" y1="256.07968" x2="257.33499" y2="181.87796"/>
  <linearGradient id="linearGradient13888">
   <stop id="stop13890" offset="0" stop-color="#3f0d11"/>
   <stop id="stop13892" offset="1" stop-color="#ce2b37"/>
  </linearGradient>
  <linearGradient xlink:href="#linearGradient13888" id="linearGradient5023" gradientUnits="userSpaceOnUse" gradientTransform="matrix(1.3290549,0,0,1.3290549,322.93061,312.94114)" x1="255.76561" y1="309.47562" x2="255.76561" y2="364.7558"/>
  <linearGradient id="linearGradient5702">
   <stop id="stop5704" offset="0" stop-color="#3f0d11"/>
   <stop id="stop5706" offset="1" stop-color="#ce2b37"/>
  </linearGradient>
  <radialGradient xlink:href="#linearGradient15687" id="radialGradient4010" gradientUnits="userSpaceOnUse" cx="255.66127" cy="83.5467" fx="255.66127" fy="83.5467" r="29.041245"/>
  <linearGradient id="linearGradient5709">
   <stop id="stop5711" offset="0" stop-color="#e1cc68"/>
   <stop offset="0.545455" id="stop5713" stop-color="#e1cc68"/>
   <stop id="stop5715" offset="1" stop-color="#897827"/>
  </linearGradient>
  <radialGradient xlink:href="#linearGradient15687" id="radialGradient6490" gradientUnits="userSpaceOnUse" cx="255.66127" cy="83.5467" fx="255.66127" fy="83.5467" r="29.041245"/>
  <linearGradient xlink:href="#linearGradient13888" id="linearGradient6492" x1="0.404919" y1="-1.552018" x2="0.404919" y2="-1.124892"/>
  <linearGradient xlink:href="#linearGradient13888" id="linearGradient6494" x1="0.428675" y1="0.243483" x2="0.428675" y2="-0.01502"/>
  <linearGradient xlink:href="#linearGradient4316" id="linearGradient6496" x1="0.210242" y1="-0.180675" x2="0.62591" y2="-0.180675"/>
  <linearGradient xlink:href="#linearGradient15687" id="linearGradient6498" x1="0.758415" y1="0.333397" x2="1.06703" y2="0.430095"/>
  <linearGradient xlink:href="#linearGradient15687" id="linearGradient6500" x1="0.650591" y1="0.48271" x2="0.950456" y2="0.520431"/>
  <linearGradient xlink:href="#linearGradient4285" id="linearGradient6502" x1="0.195808" y1="0.453245" x2="0.419371" y2="0.455185"/>
 </defs>
 <metadata id="metadata5893">image/svg+xml</metadata>
 <g>
  <title>Layer 1</title>
  <g externalResourcesRequired="false" id="layer1">
   <g externalResourcesRequired="false" id="g6317">
    <g id="g4422" fill="#817022">
     <path id="path4418" d="m478.178162,457.591156c98.61853,22.795258 187.28064,-26.913391 216.202393,-80.367279l4.267151,-34.053925c-43.427063,45.08902 -135.395081,90.791351 -208.37912,55.167389l-12.090424,59.253815z" stroke-miterlimit="2" stroke-width="2" stroke="#000000" fill-rule="nonzero" fill="#817022"/>
     <path d="m483.156372,443.969391c70.355774,16.262421 135.644043,-4.376343 177.788513,-36.950623" id="path4420" stroke-miterlimit="2" stroke-width="2" stroke="#000000" fill-rule="nonzero" fill="#817022"/>
    </g>
    <path id="path4405" d="m980.991272,457.591156c-98.618958,22.795258 -187.280762,-26.913605 -216.202637,-80.367279l-4.267029,-34.053925c43.42688,45.08902 135.394958,90.791351 208.379089,55.167389l12.090576,59.253815z" fill-rule="nonzero" fill="#e1cc68"/>
    <path id="path4416" d="m760.553528,343.191925l4.235107,34.039368c20.098572,37.146545 69.061218,72.398926 130.152527,82.852905l20.646118,-9.994507l-4.915588,-39.036438c-58.376587,-0.317719 -117.729797,-34.233307 -150.118164,-67.861328z" fill-rule="nonzero" fill="#817022"/>
    <path d="m980.991272,457.591156c-98.618958,22.795258 -187.280762,-26.913605 -216.202637,-80.367279l-4.267029,-34.053925c43.42688,45.08902 135.394958,90.791351 208.379089,55.167389l12.090576,59.253815z" id="path4452" stroke-miterlimit="2" stroke-width="2" stroke="#000000" fill="none"/>
    <path d="m976.012634,443.969574c-70.355408,16.262238 -135.643616,-4.376343 -177.788086,-36.950623" id="path4412" stroke-miterlimit="2" stroke-width="2" stroke="#000000" fill="none"/>
    <path d="m819.151245,281.866333c0,47.389008 -40.114807,85.805267 -89.599121,85.805267c-49.484436,0 -89.599426,-38.41626 -89.599426,-85.805267c0,-47.38887 40.11499,-85.80513 89.599426,-85.80513c49.484314,0 89.599121,38.41626 89.599121,85.80513l0,0z" id="path1873" stroke-miterlimit="3.5" stroke-linejoin="round" stroke-linecap="round" stroke-width="1.514421" stroke="#000000" fill-rule="nonzero" fill="url(#radialGradient6490)"/>
    <path id="rect2764" d="m729.534424,39.000011c-11.762756,0 -21.308594,9.21558 -21.308594,20.59866c0,4.524681 1.564453,8.726746 4.121033,12.128189c-3.210022,-3.724182 -8.036255,-6.064148 -13.468567,-6.064148c-9.657654,0 -17.489075,7.499771 -17.489075,16.748451c0,9.248665 7.831421,16.748428 17.489075,16.748428c6.378174,0 11.920898,-3.296074 14.976135,-8.181732l0,31.090508l-20.906311,0l-19.599792,0c5.101746,-2.925888 8.543396,-8.233971 8.543396,-14.342018c0,-9.248726 -7.831238,-16.748383 -17.489014,-16.748383c-9.657654,0 -17.488953,7.499657 -17.488953,16.748383c0,5.202408 2.443237,9.824287 6.332092,12.898224c-3.547363,-2.466362 -7.939514,-3.946472 -12.664429,-3.946472c-11.88623,0 -21.509521,9.237923 -21.509521,20.502411c0,11.264435 9.623291,20.406158 21.509521,20.406158c4.724792,0 9.112488,-1.498352 12.664429,-3.946472c-3.888855,3.073883 -6.332092,7.695816 -6.332092,12.898209c0,9.248703 7.831299,16.748352 17.488953,16.748352c9.657776,0 17.489014,-7.499649 17.489014,-16.748352c0,-6.108032 -3.44165,-11.416168 -8.543396,-14.342056l19.599792,0l20.906311,0l0,114.640198l-72.468628,0c-0.902771,4.883575 -1.407288,9.885162 -1.407288,15.015686c0,5.14801 0.498413,10.213043 1.407288,15.112122l72.468628,0l0,69.303864c5.09967,0.864502 10.322266,1.443848 15.679626,1.443848c5.375488,0 10.66449,-0.573456 15.780518,-1.443848l0,-69.303864l72.368286,0c0.908813,-4.899292 1.507568,-9.964111 1.507568,-15.112122c0,-5.130524 -0.60498,-10.132111 -1.507568,-15.015686l-72.368286,0l0,-114.640198l20.906189,0l19.599731,0c-5.101624,2.925888 -8.543457,8.234024 -8.543457,14.342056c0,9.248703 7.831299,16.748352 17.489136,16.748352c9.657654,0 17.488831,-7.499649 17.488831,-16.748352c0,-5.202347 -2.44342,-9.824326 -6.332214,-12.898209c3.552063,2.44812 7.939514,3.946472 12.664368,3.946472c11.886414,0 21.509521,-9.141724 21.509521,-20.406158c0,-11.264488 -9.623108,-20.502411 -21.509521,-20.502411c-4.724854,0 -9.117065,1.48011 -12.664368,3.946472c3.888794,-3.073936 6.332214,-7.695816 6.332214,-12.898224c0,-9.248726 -7.831177,-16.748383 -17.488831,-16.748383c-9.657837,0 -17.489136,7.499657 -17.489136,16.748383c0,6.108047 3.44165,11.41613 8.543457,14.342018l-19.599731,0l-20.906189,0l0,-31.090508c3.055115,4.885658 8.598083,8.181732 14.976135,8.181732c9.657593,0 17.489075,-7.499763 17.489075,-16.748428c0,-9.24868 -7.831482,-16.748451 -17.489075,-16.748451c-5.432434,0 -10.258667,2.339966 -13.468689,6.064148c2.5755,-3.397163 4.121033,-7.603508 4.121033,-12.128189c0,-11.38303 -9.646301,-20.59866 -21.408997,-20.59866l0.000366,0z" stroke-miterlimit="3.5" stroke-width="2" stroke="#000000" fill-rule="nonzero" fill="#e1cc68"/>
    <path id="path9141" d="m349.277252,602.217712c-39.837158,27.208618 -75.286316,54.417603 -103.180069,81.626343l7.177704,92.796387l86.13295,109.980957l46.655334,53.271851l698.035583,0l53.833008,-80.767212l85.235718,-94.514832l0,-97.092346c-36.035645,-24.131287 -73.15918,-47.741394 -113.946655,-69.59729c-33.868286,-3.865601 -64.819946,-5.868835 -91.516174,-5.155396c-30.28064,-12.226257 -60.840576,-24.385437 -100.488464,-34.36908c-26.019165,7.303528 -52.206116,14.526672 -73.57196,24.058289c-35.98175,-5.397217 -66.661194,-13.333496 -111.254944,-14.606873c-39.328064,4.439209 -78.085571,9.425232 -122.02179,9.451477c-35.195129,-4.914551 -69.674744,-10.171875 -109.460358,-12.888611l-69.983246,40.383789c-24.638275,-1.352844 -45.769562,-3.37738 -81.646637,-2.577698l0,0.000244z" stroke-miterlimit="2" stroke-width="2" stroke="#000000" fill-rule="evenodd" fill="url(#linearGradient6494)"/>
    <path d="m1016.245605,386.55188c88.298584,-16.388214 181.447876,15.658295 235.968384,87.641113c52.609375,69.460083 51.328369,123.155334 56.524414,190.748169c2.69165,35.013245 22.430786,69.597229 22.430786,69.597229c-25.165649,9.857117 -53.820435,24.282471 -89.721924,48.975952l-37.445068,-5.124512c-7.829712,-30.186768 -22.029175,-57.194519 -40.612793,-84.234985c91.646118,-163.211548 -17.406494,-239.576477 -104.077393,-239.724091l-68.637146,-17.184448l25.57074,-50.694427l0,0z" id="path20093" fill-rule="evenodd" fill="#e1cc68"/>
    <path id="path4578" d="m1049.445557,436.401642l-45.451111,4.200531l55.282532,13.833008c86.671021,0.147308 195.784058,76.511658 104.137451,239.723206c18.583496,27.040283 32.781494,54.042175 40.61145,84.228882l5.066772,0.724243c6.383789,-6.473511 11.192749,-11.660278 11.192749,-11.660278l-4.84021,1.448608c-6.95459,-25.740417 -17.961304,-49.527649 -29.645386,-73.003357c71.975586,-130.435608 20.139526,-260.915802 -136.354248,-259.494843l0,0z" fill-rule="evenodd" fill="#c3af52"/>
    <path id="path5088" d="m713.967773,770.275818c-13.121216,67.190002 -62.448853,85.766846 -97.104065,24.334412c-15.749878,48.680847 -54.549561,78.65741 -98.994812,15.136597c-6.703186,50.611328 -47.201355,85.737427 -94.457123,21.220154c-5.680145,55.748596 -42.910156,78.268188 -81.222687,44.97522l-20.343384,-1.738159c20.740021,20.520874 26.047943,42.254333 26.620422,64.384888c-9.354553,9.665649 -5.231873,24.395874 6.352448,23.682678l15.881744,80.752563l-3.100739,17.019775c-4.960571,20.547119 3.765259,27.889771 11.949005,35.849609l3.47876,0c-2.857605,-4.054688 -4.310669,-8.264771 -4.310669,-12.529419c0,-44.749512 157.209412,-94.15094 350.905762,-94.15094c193.696045,0 350.829956,46.833801 350.829956,95.020203c0,4.018433 -1.059448,7.916748 -3.176147,11.660156l2.722534,0c8.183228,-7.959839 17.060791,-15.30249 12.10022,-35.849609l-3.252075,-17.019775l15.881714,-80.752563c11.330688,-1.799316 14.926147,-15.779663 6.352539,-23.682678c0.572266,-22.130554 5.880249,-43.864014 26.620483,-64.384888l-20.267944,1.738159c-38.312256,33.292969 -75.542603,10.773376 -81.222412,-44.97522c-47.25592,64.517273 -87.829651,29.391174 -94.532898,-21.220154c-44.445435,63.520752 -83.245361,33.54425 -98.994751,-15.136597c-34.655273,61.432434 -83.983276,42.855591 -97.104187,-24.334412l-16.619446,-10.108459l-14.992249,10.108459z" stroke-miterlimit="4" stroke-width="2" stroke="#000000" fill-rule="evenodd" fill="url(#linearGradient6496)"/>
    <path id="path4259" d="m729.622437,802.57666c0,0 0,0 0,0zm0,0c-34.401123,57.656067 -67.592529,63.839722 -109.960632,29.476685c-30.411865,40.957947 -56.880615,45.071472 -95.515869,17.16449c-19.97583,39.338623 -51.848572,46.196716 -89.768402,22.813538c-14.970306,37.615051 -51.458313,47.395142 -93.322723,26.217346c-0.718567,-0.363464 -1.35611,-0.637573 -2.041931,-0.941528c6.815826,13.412659 9.079712,27.204712 9.453247,41.136902c35.371826,-20.392578 139.832794,-78.362671 379.946228,-78.362671l3.100647,0c239.11792,0 343.734802,57.437012 379.568176,78.072998c0.400146,-13.933411 2.721313,-27.726196 9.60437,-41.136902c-0.859985,0.365601 -1.65979,0.770325 -2.571167,1.231201c-41.864502,21.177795 -78.352661,11.397461 -93.322876,-26.217346c-37.9198,23.383179 -69.792603,16.525085 -89.768372,-22.813538c-38.635315,27.906982 -65.103821,23.793457 -95.515808,-17.16449c-42.360413,34.356628 -75.490601,28.149597 -109.884888,-29.476685z" stroke-miterlimit="2" stroke-width="2" stroke="#000000" fill-rule="evenodd" fill="#6b5b19"/>
    <path id="path22932" d="m336.15448,871.584961c44.556183,46.095276 82.378113,13.986328 86.132935,-40.813477c36.125427,53.456238 93.07373,42.346191 91.964722,-25.346863c31.457581,57.120544 83.534912,55.994324 101.834229,-9.881165c35.994873,60.858032 89.104309,41.399414 98.694153,-26.635925" stroke-miterlimit="2" stroke-width="2.65811" stroke="#000000" fill="none"/>
    <path d="m1123.014771,871.584961c-44.555908,46.095276 -82.378052,13.986328 -86.132935,-40.813477c-36.125488,53.456238 -93.073792,42.346191 -91.964844,-25.346863c-31.45752,57.120544 -83.534668,55.994324 -101.834106,-9.881165c-35.994995,60.858032 -89.104248,41.399414 -98.694214,-26.635925" id="path24723" stroke-miterlimit="2" stroke-width="2.65811" stroke="#000000" fill="none"/>
    <path id="path24725" d="m1118.0802,898.220825c-41.864502,21.177795 -78.34082,11.408752 -93.310669,-26.20636c-37.919922,23.383362 -69.746094,16.569275 -89.72168,-22.769348c-38.635254,27.90686 -65.142029,23.773621 -95.553772,-17.184509c-42.724121,34.651611 -76.094604,28.081116 -110.806396,-30.932129" stroke-miterlimit="2" stroke-width="2" stroke="#000000" fill="none"/>
    <path id="path2015" d="m1112.181152,938.793518c-34.839355,-20.105286 -139.200684,-78.737 -380.636536,-78.737l-3.115967,0c-241.362671,0 -345.701752,58.634644 -380.536224,78.737" stroke-miterlimit="3" stroke-width="2" stroke="#000000" fill="none"/>
    <path id="path13642" d="m442.923279,386.55188c-88.298584,-16.388214 -181.447784,15.658295 -235.968124,87.641113c-52.609772,69.460083 -51.328476,123.155334 -56.524872,190.748169c-2.691513,35.013245 -22.430267,69.597229 -22.430267,69.597229c25.165634,9.857117 53.820358,24.282471 89.721802,48.975952l37.445053,-5.124512c7.829865,-30.186768 22.029205,-57.194519 40.612946,-84.234985c-91.646667,-163.211548 17.40625,-239.576477 104.076996,-239.724091l68.63736,-17.184448l-25.570892,-50.694427z" stroke-miterlimit="3" stroke-width="2" stroke="#000000" fill-rule="evenodd" fill="url(#linearGradient6498)"/>
    <path id="path15420" d="m219.403,635.727417c0,16.608887 -14.059387,30.072876 -31.402466,30.072876c-17.343155,0 -31.402542,-13.463989 -31.402542,-30.072876c0,-16.608826 14.059387,-30.072815 31.402542,-30.072815c17.343292,0 31.402466,13.463989 31.402466,30.072815z" stroke-miterlimit="3" stroke-width="1.504829" stroke="#000000" fill-rule="nonzero" fill="#ffffff"/>
    <path d="m218.057297,574.722473c0,14.473389 -12.251785,26.206299 -27.365021,26.206299c-15.113464,0 -27.365265,-11.73291 -27.365265,-26.206299c0,-14.47345 12.251801,-26.20636 27.365265,-26.20636c15.113235,0 27.365021,11.73291 27.365021,26.20636z" id="path15424" stroke-miterlimit="3" stroke-width="1.504829" stroke="#000000" fill-rule="nonzero" fill="#ffffff"/>
    <path id="path15428" d="m232.861618,517.154175c0,13.761597 -11.649292,24.917542 -26.019333,24.917542c-14.370163,0 -26.01944,-11.155945 -26.01944,-24.917542c0,-13.761444 11.649277,-24.917511 26.01944,-24.917511c14.370041,0 26.019333,11.156067 26.019333,24.917511z" stroke-miterlimit="3" stroke-width="1.504829" stroke="#000000" fill-rule="nonzero" fill="#ffffff"/>
    <path d="m261.572449,466.459869c0,11.388916 -9.640686,20.621399 -21.533234,20.621399c-11.892349,0 -21.533249,-9.232483 -21.533249,-20.621399c0,-11.388885 9.6409,-20.621399 21.533249,-20.621399c11.892548,0 21.533234,9.232513 21.533234,20.621399z" id="path15430" stroke-miterlimit="3" stroke-width="1.504829" stroke="#000000" fill-rule="nonzero" fill="#ffffff"/>
    <path d="m309.125153,430.372467c0,11.388916 -9.640747,20.621399 -21.533081,20.621399c-11.892517,0 -21.533417,-9.232483 -21.533417,-20.621399c0,-11.388977 9.6409,-20.62149 21.533417,-20.62149c11.892334,0 21.533081,9.232513 21.533081,20.62149z" id="path15434" stroke-miterlimit="3" stroke-width="1.504829" stroke="#000000" fill-rule="nonzero" fill="#ffffff"/>
    <path id="path15438" d="m354.434296,407.173492c0,8.778809 -7.431366,15.895569 -16.59848,15.895569c-9.167023,0 -16.598541,-7.11676 -16.598541,-15.895569c0,-8.779053 7.431519,-15.895905 16.598541,-15.895905c9.167023,0 16.59848,7.116852 16.59848,15.895905z" stroke-miterlimit="3" stroke-width="1.504829" stroke="#000000" fill-rule="nonzero" fill="#ffffff"/>
    <path d="m404.678497,398.580994c0,8.779053 -7.431396,15.895813 -16.59845,15.895813c-9.167206,0 -16.598602,-7.11676 -16.598602,-15.895813c0,-8.778809 7.431396,-15.89566 16.598602,-15.89566c9.166962,0 16.59845,7.116852 16.59845,15.89566z" id="path15440" stroke-miterlimit="3" stroke-width="1.504829" stroke="#000000" fill-rule="nonzero" fill="#ffffff"/>
    <path id="path15446" d="m409.726227,436.387054c-156.493164,-1.420898 -208.352844,129.050446 -136.376984,259.486237c-11.684021,23.475586 -22.653656,47.29364 -29.608322,73.033997" stroke-miterlimit="3" stroke-width="2" stroke="#000000" fill="none"/>
    <path id="path4250" d="m602.66571,392.874756c7.199585,0 13.00769,5.634613 13.00769,12.529388c0,6.894653 -5.808105,12.45694 -13.00769,12.45694c-7.199463,0 -13.007629,-5.562286 -13.007629,-12.45694c0,-6.894775 5.80835,-12.529388 13.007629,-12.529388z" stroke-miterlimit="3" stroke-width="2" stroke="#000000" fill-rule="nonzero" fill="#ffffff"/>
    <path id="path4248" d="m566.365173,400.406891c7.984802,0 14.520203,6.186462 14.520203,13.833008c0,7.646484 -6.5354,13.832916 -14.520203,13.832916c-7.984558,0 -14.444641,-6.186432 -14.444641,-13.832916c0.000305,-7.646545 6.460083,-13.833008 14.444641,-13.833008z" stroke-miterlimit="3" stroke-width="2" stroke="#000000" fill-rule="nonzero" fill="#ffffff"/>
    <path id="path4481" d="m528.703308,401.782959c8.377319,0 15.200989,6.462311 15.200989,14.484772c0,8.022491 -6.823669,14.55722 -15.200989,14.55722c-8.377075,0 -15.200928,-6.534729 -15.200928,-14.55722c0.000305,-8.022461 6.823853,-14.484772 15.200928,-14.484772z" stroke-miterlimit="3" stroke-width="2" stroke="#000000" fill-rule="nonzero" fill="#ffffff"/>
    <path id="path4506" d="m534.482361,408.864685c0.497559,1.126648 0.78418,2.348114 0.78418,3.647797c0,5.198334 -4.408081,9.419586 -9.836365,9.419586c-2.000305,0 -3.868835,-0.582642 -5.422058,-1.566498c1.57373,3.085144 4.868774,5.214111 8.693359,5.214111c5.34613,0 9.67926,-4.149811 9.67926,-9.269409c0,-3.045074 -1.52948,-5.754303 -3.898376,-7.445587z" fill-rule="nonzero" fill="#37abc8"/>
    <path id="path10983" d="m589.1698,372.374725c-137.350952,71.993774 -126.838837,177.573761 -21.981628,238.435211c-50.105225,46.790588 -72.06015,88.679626 -69.534515,126.30603c-39.765167,-29.472473 -84.800659,-55.15979 -134.134033,-77.759766c15.080658,-19.670105 26.793243,-49.248352 27.57547,-75.901611c2.640778,-89.553528 -14.16452,-207.808044 163.083313,-251.46347l35.402466,0.38623l-0.411072,39.997192l0,0.000183z" stroke-miterlimit="3" stroke-width="2" stroke="#000000" fill-rule="evenodd" fill="url(#linearGradient6500)"/>
    <path id="path12755" d="m579.300598,356.479126c-179.171417,98.164337 -94.069733,217.935974 -30.505371,255.619629c-29.935791,29.114807 -54.408997,62.672241 -63.25415,93.655518l0,0" stroke-miterlimit="3" stroke-width="2" stroke="#000000" fill="none"/>
    <path d="m470.624237,565.270813c0,16.608887 -14.059387,30.073059 -31.402466,30.073059c-17.34317,0 -31.402771,-13.464172 -31.402771,-30.073059c0,-16.608765 14.059601,-30.072815 31.402771,-30.072815c17.343292,0 31.402466,13.464233 31.402466,30.072815z" id="path15418" stroke-miterlimit="3" stroke-width="1.504829" stroke="#000000" fill-rule="nonzero" fill="#ffffff"/>
    <path d="m499.335388,626.705566c0,20.879578 -17.674683,37.80603 -39.477509,37.80603c-21.802948,0 -39.477631,-16.926453 -39.477631,-37.80603c0,-20.879639 17.674683,-37.805847 39.477631,-37.805847c21.802826,0 39.477509,16.926208 39.477509,37.805847z" id="path15416" stroke-miterlimit="3" stroke-width="1.504829" stroke="#000000" fill-rule="nonzero" fill="#ffffff"/>
    <path id="path15422" d="m455.820129,509.421295c0,14.473358 -12.25177,26.206268 -27.365021,26.206268c-15.113464,0 -27.365234,-11.73291 -27.365234,-26.206268c0,-14.473419 12.25177,-26.20636 27.365234,-26.20636c15.113251,0 27.365021,11.732941 27.365021,26.20636z" stroke-miterlimit="3" stroke-width="1.504829" stroke="#000000" fill-rule="nonzero" fill="#ffffff"/>
    <path d="m459.857574,455.290131c0,13.286865 -11.247498,24.058258 -25.122101,24.058258c-13.874512,0 -25.12207,-10.771393 -25.12207,-24.058258c0,-13.287109 11.247559,-24.05838 25.12207,-24.05838c13.874603,0 25.122101,10.771271 25.122101,24.05838z" id="path15426" stroke-miterlimit="3" stroke-width="1.504829" stroke="#000000" fill-rule="nonzero" fill="#ffffff"/>
    <path id="path15432" d="m477.802032,409.750977c0,11.389008 -9.640686,20.62149 -21.533203,20.62149c-11.892456,0 -21.533264,-9.232483 -21.533264,-20.62149c0,-11.388885 9.640808,-20.621399 21.533264,-20.621399c11.892517,0 21.533203,9.232513 21.533203,20.621399z" stroke-miterlimit="3" stroke-width="1.504829" stroke="#000000" fill-rule="nonzero" fill="#ffffff"/>
    <path id="path15442" d="m507.858704,374.522644c0,8.779053 -7.431519,15.895874 -16.598724,15.895874c-9.166962,0 -16.598419,-7.116821 -16.598419,-15.895874c0,-8.778839 7.431458,-15.895599 16.598419,-15.895599c9.167114,0 16.598724,7.11676 16.598724,15.895599z" stroke-miterlimit="3" stroke-width="1.504829" stroke="#000000" fill-rule="nonzero" fill="#ffffff"/>
    <path d="m546.887878,353.042084c0,6.643646 -5.62384,12.029236 -12.561096,12.029236c-6.937317,0 -12.561096,-5.38559 -12.561096,-12.029236c0,-6.643341 5.623779,-12.029053 12.561096,-12.029053c6.937256,0 12.561096,5.385712 12.561096,12.029053z" id="path15444" stroke-miterlimit="3" stroke-width="1.504829" stroke="#000000" fill-rule="nonzero" fill="#ffffff"/>
    <path id="path15414" d="m236.450348,707.472839c0,20.8797 -17.674561,37.805908 -39.477402,37.805908c-21.802826,0 -39.477615,-16.926208 -39.477615,-37.805908c0,-20.879639 17.674789,-37.80603 39.477615,-37.80603c21.802841,0 39.477402,16.92627 39.477402,37.80603z" stroke-miterlimit="3" stroke-width="1.504829" stroke="#000000" fill-rule="nonzero" fill="#ffffff"/>
    <path d="m1239.765991,635.727417c0,16.608887 14.059448,30.072876 31.402588,30.072876c17.343018,0 31.402588,-13.463989 31.402588,-30.072876c0,-16.608826 -14.059326,-30.072815 -31.402588,-30.072815c-17.34314,0 -31.402588,13.463989 -31.402588,30.072815z" id="path20095" stroke-miterlimit="3" stroke-width="1.504829" stroke="#000000" fill-rule="nonzero" fill="#ffffff"/>
    <path id="path20097" d="m1241.111694,574.722473c0,14.473389 12.251465,26.206299 27.36499,26.206299c15.113403,0 27.365234,-11.73291 27.365234,-26.206299c0,-14.47345 -12.251831,-26.20636 -27.365234,-26.20636c-15.113525,0 -27.36499,11.73291 -27.36499,26.20636z" stroke-miterlimit="3" stroke-width="1.504829" stroke="#000000" fill-rule="nonzero" fill="#ffffff"/>
    <path id="path4454" d="m1049.445557,436.401642l-28.586609,8.401031l38.41803,9.632507c19.673462,0.033356 40.525635,4.010498 59.895996,12.022339l11.041626,-16.29538c-22.688599,-9.105194 -49.65979,-14.04306 -80.769043,-13.760498z" fill-rule="nonzero" fill="#817022"/>
    <path d="m1049.442749,436.387054c156.49353,-1.420898 208.352661,129.050446 136.377075,259.486237c11.684082,23.475586 22.653687,47.29364 29.608276,73.033997" id="path20109" stroke-miterlimit="3" stroke-width="2" stroke="#000000" fill="none"/>
    <path id="path4463" d="m1016.245605,386.55188c88.298584,-16.388214 181.447876,15.658295 235.968384,87.641113c52.609375,69.460083 51.328369,123.155334 56.524414,190.748169c2.69165,35.013245 22.430786,69.597229 22.430786,69.597229c-25.165649,9.857117 -53.820435,24.282471 -89.721924,48.975952l-37.445068,-5.124512c-7.829712,-30.186768 -22.029175,-57.194519 -40.612793,-84.234985c91.646118,-163.211548 -17.406494,-239.576477 -104.077393,-239.724091l-68.637146,-17.184448l25.57074,-50.694427l0,0z" stroke-miterlimit="3" stroke-width="2" stroke="#000000" fill="none"/>
    <path id="path20101" d="m1197.596802,466.459869c0,11.388916 9.640503,20.621399 21.532837,20.621399c11.892578,0 21.533203,-9.232483 21.533203,-20.621399c0,-11.388885 -9.640625,-20.621399 -21.533203,-20.621399c-11.892334,0 -21.532837,9.232513 -21.532837,20.621399z" stroke-miterlimit="3" stroke-width="1.504829" stroke="#000000" fill-rule="nonzero" fill="#ffffff"/>
    <path d="m1226.307373,517.154175c0,13.761597 11.64917,24.917542 26.019409,24.917542c14.369873,0 26.019287,-11.155945 26.019287,-24.917542c0,-13.761444 -11.649414,-24.917511 -26.019287,-24.917511c-14.370239,0 -26.019409,11.156067 -26.019409,24.917511z" id="path20099" stroke-miterlimit="3" stroke-width="1.504829" stroke="#000000" fill-rule="nonzero" fill="#ffffff"/>
    <path id="path4244" d="m856.503418,392.874756c-7.199402,0 -13.007629,5.634613 -13.007629,12.529388c0,6.894653 5.808105,12.45694 13.007629,12.45694c7.199585,0 13.00769,-5.562286 13.00769,-12.45694c0,-6.894775 -5.808105,-12.529388 -13.00769,-12.529388z" stroke-miterlimit="3" stroke-width="2" stroke="#000000" fill-rule="nonzero" fill="#ffffff"/>
    <path id="path4242" d="m892.804016,400.406891c-7.984741,0 -14.520203,6.186462 -14.520203,13.833008c0,7.646484 6.535461,13.832916 14.520203,13.832916c7.984436,0 14.444641,-6.186432 14.444641,-13.832916c-0.000061,-7.646545 -6.460205,-13.833008 -14.444641,-13.833008z" stroke-miterlimit="3" stroke-width="2" stroke="#000000" fill-rule="nonzero" fill="#ffffff"/>
    <path id="path4466" d="m930.465881,401.782959c-8.377258,0 -15.200989,6.462311 -15.200989,14.484772c0,8.022491 6.82373,14.55722 15.200989,14.55722c8.377075,0 15.200928,-6.534729 15.200928,-14.55722c-0.000183,-8.022461 -6.823853,-14.484772 -15.200928,-14.484772z" stroke-miterlimit="3" stroke-width="2" stroke="#000000" fill-rule="nonzero" fill="#ffffff"/>
    <path d="m869.999146,372.374725c137.351257,71.993774 126.839111,177.573761 21.981873,238.435211c50.105225,46.790588 72.060181,88.679626 69.534485,126.30603c39.765381,-29.472473 84.800537,-55.15979 134.134033,-77.759766c-15.080566,-19.670105 -26.792969,-49.248352 -27.575317,-75.901611c-2.640869,-89.553528 14.164307,-207.808044 -163.083557,-251.46347l-35.402649,0.38623l0.411133,39.997192l0,0.000183z" id="path20117" fill-rule="evenodd" fill="#e1cc68"/>
    <path d="m936.244873,408.864685c0.497681,1.126648 0.784058,2.348114 0.784058,3.647797c0,5.198334 -4.408081,9.419586 -9.836243,9.419586c-2.000244,0 -3.868774,-0.582642 -5.421997,-1.566498c1.57373,3.085144 4.868652,5.214111 8.693237,5.214111c5.346069,0 9.679443,-4.149811 9.679443,-9.269409c0,-3.045074 -1.529541,-5.754303 -3.898499,-7.445587z" id="path4582" fill-rule="nonzero" fill="#37abc8"/>
    <path id="path4585" d="m869.75769,350.579224l0.226807,21.799652c137.351074,71.993652 126.864441,177.558136 22.007324,238.419464c46.534485,43.456482 68.739868,82.683533 69.651672,118.19574c7.917664,-11.992554 14.747131,-22.451416 14.747131,-22.451416l-2.79834,-0.796509c-8.844666,-30.983398 -33.287415,-64.529175 -63.22345,-93.644165c63.564026,-37.683594 148.694031,-157.491882 -30.477234,-255.656311l-10.134094,-5.866455l0.000183,0z" fill-rule="evenodd" fill="#c3af52"/>
    <path d="m879.868713,356.479126c179.171204,98.164337 94.069519,217.935974 30.50531,255.619629c29.935608,29.114807 54.408875,62.672241 63.253784,93.655518l0,0" id="path20119" stroke-miterlimit="3" stroke-width="2" stroke="#000000" fill="none"/>
    <path id="path20121" d="m988.544739,565.270813c0,16.608887 14.059387,30.073059 31.402466,30.073059c17.343323,0 31.402893,-13.464172 31.402893,-30.073059c0,-16.608765 -14.059448,-30.072815 -31.402893,-30.072815c-17.343079,0 -31.402466,13.464233 -31.402466,30.072815z" stroke-miterlimit="3" stroke-width="1.504829" stroke="#000000" fill-rule="nonzero" fill="#ffffff"/>
    <path id="path20123" d="m959.833679,626.705566c0,20.879578 17.674622,37.80603 39.477539,37.80603c21.802917,0 39.477478,-16.926453 39.477478,-37.80603c0,-20.879639 -17.674561,-37.805847 -39.477478,-37.805847c-21.802917,0 -39.477539,16.926208 -39.477539,37.805847z" stroke-miterlimit="3" stroke-width="1.504829" stroke="#000000" fill-rule="nonzero" fill="#ffffff"/>
    <path d="m1003.348816,509.421295c0,14.473358 12.251648,26.206268 27.365051,26.206268c15.113281,0 27.365234,-11.73291 27.365234,-26.206268c0,-14.473419 -12.251953,-26.20636 -27.365234,-26.20636c-15.113403,0 -27.365051,11.732941 -27.365051,26.20636z" id="path20125" stroke-miterlimit="3" stroke-width="1.504829" stroke="#000000" fill-rule="nonzero" fill="#ffffff"/>
    <path id="path20127" d="m999.311401,455.290131c0,13.286865 11.247559,24.058258 25.12207,24.058258c13.874512,0 25.122192,-10.771393 25.122192,-24.058258c0,-13.287109 -11.247681,-24.05838 -25.122192,-24.05838c-13.874512,0 -25.12207,10.771271 -25.12207,24.05838z" stroke-miterlimit="3" stroke-width="1.504829" stroke="#000000" fill-rule="nonzero" fill="#ffffff"/>
    <path d="m981.367065,409.750977c0,11.389008 9.640503,20.62149 21.533142,20.62149c11.892517,0 21.533264,-9.232483 21.533264,-20.62149c0,-11.388885 -9.640747,-20.621399 -21.533264,-20.621399c-11.892639,0 -21.533142,9.232513 -21.533142,20.621399z" id="path20129" stroke-miterlimit="3" stroke-width="1.504829" stroke="#000000" fill-rule="nonzero" fill="#ffffff"/>
    <path d="m951.310608,374.522644c0,8.779053 7.431396,15.895874 16.598572,15.895874c9.166992,0 16.598328,-7.116821 16.598328,-15.895874c0,-8.778839 -7.431335,-15.895599 -16.598328,-15.895599c-9.167175,0 -16.598572,7.11676 -16.598572,15.895599z" id="path20131" stroke-miterlimit="3" stroke-width="1.504829" stroke="#000000" fill-rule="nonzero" fill="#ffffff"/>
    <path id="path20133" d="m912.281372,353.042084c0,6.643646 5.624084,12.029236 12.56134,12.029236c6.937134,0 12.560913,-5.38559 12.560913,-12.029236c0,-6.643341 -5.623779,-12.029053 -12.560913,-12.029053c-6.937256,0 -12.56134,5.385712 -12.56134,12.029053z" stroke-miterlimit="3" stroke-width="1.504829" stroke="#000000" fill-rule="nonzero" fill="#ffffff"/>
    <path d="m1222.718384,707.472839c0,20.8797 17.674805,37.805908 39.477539,37.805908c21.802856,0 39.477661,-16.926208 39.477661,-37.805908c0,-20.879639 -17.674805,-37.80603 -39.477661,-37.80603c-21.802734,0 -39.477539,16.92627 -39.477539,37.80603z" id="path20135" stroke-miterlimit="3" stroke-width="1.504829" stroke="#000000" fill-rule="nonzero" fill="#ffffff"/>
    <path id="path4590" d="m869.999146,372.374725c137.351257,71.993774 126.839111,177.573761 21.981873,238.435211c50.105225,46.790588 72.060181,88.679626 69.534485,126.30603c39.765381,-29.472473 84.800537,-55.15979 134.134033,-77.759766c-15.080566,-19.670105 -26.792969,-49.248352 -27.575317,-75.901611c-2.640869,-89.553528 14.164307,-207.808044 -163.083557,-251.46347l-35.402649,0.38623l0.411133,39.997192l0,0.000183z" stroke-miterlimit="3" stroke-width="2" stroke="#000000" fill="none"/>
    <path id="path4519" d="m607.544556,399.087433c0.420471,0.950958 0.661987,1.9823 0.661987,3.079437c0,4.388672 -3.72113,7.952423 -8.304016,7.952423c-1.688843,0 -3.266296,-0.49173 -4.577576,-1.322388c1.328491,2.604523 4.110413,4.402008 7.339539,4.402008c4.513123,0 8.171509,-3.503479 8.171509,-7.825562c0,-2.570801 -1.291504,-4.858154 -3.291443,-6.285919z" fill-rule="nonzero" fill="#37abc8"/>
    <path d="m861.382263,399.087433c0.42041,0.950958 0.661987,1.9823 0.661987,3.079437c0,4.388672 -3.721436,7.952423 -8.304138,7.952423c-1.688904,0 -3.266357,-0.49173 -4.577515,-1.322388c1.328247,2.604523 4.110352,4.402008 7.339355,4.402008c4.513184,0 8.171509,-3.503479 8.171509,-7.825562c0,-2.570801 -1.291443,-4.858154 -3.291199,-6.285919z" id="path4588" fill-rule="nonzero" fill="#37abc8"/>
    <path id="path19128" d="m565.28656,313.208527c-9.736816,2.966705 -7.347351,12.666199 -9.026917,18.047333c2.853638,7.78952 8.867737,28.018616 8.867737,28.018616c-0.835693,-8.310059 3.529602,-18.078094 6.738708,-12.533691c29.875549,33.75589 41.476318,78.228546 56.038879,119.354553c27.258362,87.867126 46.651855,177.879089 63.601746,268.185852c-8.154236,10.000671 22.915955,5.859741 31.309204,6.662903c16.322083,-1.490356 33.982483,3.496216 49.157166,-3.548828c-9.288086,-7.924866 2.180603,-23.63501 1.662964,-34.794739c21.747314,-104.711975 42.991638,-210.588104 84.853394,-309.725555c8.79657,-17.161224 17.275818,-38.416656 33.577942,-49.248413c2.601624,4.120117 2.862732,8.430267 2.989136,15.85614c3.804688,-8.727844 6.977539,-28.297699 6.977539,-28.297699c-1.42749,-7.612518 -5.760986,-22.905273 -15.47052,-16.166504c-64.988159,31.043121 -140.14386,52.55426 -212.526367,35.416107c-37.386047,-7.885437 -72.925476,-21.848877 -107.238037,-37.660522l-1.512573,0.434448l0,0z" fill-rule="nonzero" fill="url(#linearGradient6502)"/>
    <path d="m769.062195,403.306824c0,20.8797 -17.674683,37.80603 -39.477478,37.80603c-21.802917,0 -39.4776,-16.926331 -39.4776,-37.80603c0,-20.879578 17.674683,-37.805847 39.4776,-37.805847c21.802795,0 39.477478,16.92627 39.477478,37.805847z" id="path4560" stroke-miterlimit="3" stroke-width="1.504829" stroke="#000000" fill-rule="nonzero" fill="#ffffff"/>
    <path id="path4350" d="m749.09021,378.197479c1.680359,3.802429 2.646973,7.925507 2.646973,12.31192c0,17.546051 -14.878357,31.79422 -33.199768,31.79422c-6.752197,0 -13.058655,-1.966278 -18.301758,-5.287109c5.311462,10.413208 16.433777,17.599121 29.343018,17.599121c18.04425,0 32.670593,-14.006958 32.670593,-31.287018c0,-10.278442 -5.162903,-19.422821 -13.159058,-25.131134z" fill-rule="nonzero" fill="#37abc8"/>
    <path id="path4563" d="m760.987122,465.600708c0,16.608826 -14.059143,30.072845 -31.402405,30.072845c-17.343201,0 -31.402588,-13.46402 -31.402588,-30.072845c0,-16.608826 14.059387,-30.072845 31.402588,-30.072845c17.343262,0 31.402405,13.464111 31.402405,30.072845z" stroke-miterlimit="3" stroke-width="1.504829" stroke="#000000" fill-rule="nonzero" fill="#ffffff"/>
    <path d="m756.949707,520.591309c0,14.473267 -12.251648,26.206238 -27.365112,26.206238c-15.113281,0 -27.365173,-11.732971 -27.365173,-26.206238c0,-14.47345 12.251892,-26.206512 27.365173,-26.206512c15.113464,0 27.365112,11.733063 27.365112,26.206512z" id="path4565" stroke-miterlimit="3" stroke-width="1.504829" stroke="#000000" fill-rule="nonzero" fill="#ffffff"/>
    <path id="path4567" d="m751.117859,567.848511c0,11.389038 -9.640686,20.621582 -21.533264,20.621582c-11.892517,0 -21.533203,-9.232544 -21.533203,-20.621582c0,-11.388855 9.640686,-20.621399 21.533203,-20.621399c11.892578,0 21.533264,9.232544 21.533264,20.621399z" stroke-miterlimit="3" stroke-width="1.504829" stroke="#000000" fill-rule="nonzero" fill="#ffffff"/>
    <path d="m746.183044,604.79541c0,8.778809 -7.431274,15.895569 -16.59845,15.895569c-9.167053,0 -16.598511,-7.11676 -16.598511,-15.895569c0,-8.779053 7.431458,-15.895813 16.598511,-15.895813c9.166992,0 16.59845,7.11676 16.59845,15.895813z" id="path4569" stroke-miterlimit="3" stroke-width="1.504829" stroke="#000000" fill-rule="nonzero" fill="#ffffff"/>
    <path id="path4571" d="m742.14563,638.305115c0,6.643555 -5.623779,12.029236 -12.561035,12.029236c-6.937256,0 -12.561035,-5.385681 -12.561035,-12.029236c0,-6.643494 5.623779,-12.029114 12.561035,-12.029114c6.937256,0 12.561035,5.38562 12.561035,12.029114z" stroke-miterlimit="3" stroke-width="1.504829" stroke="#000000" fill-rule="nonzero" fill="#ffffff"/>
    <g id="g18168" stroke-miterlimit="3" stroke-width="1.504829">
     <path d="m903.420471,333.279846c0,0 -4.483032,-23.904846 -14.355347,-17.614014c-70.281372,44.783173 -118.881531,328.65387 -129.64801,388.370117" id="path4601" stroke-miterlimit="3" stroke-width="1.504829" stroke="#000000" fill="none"/>
     <path id="path4614" d="m555.748657,333.279846c0,0 4.483154,-23.904846 14.355591,-17.614014c70.281128,44.783173 118.881287,328.65387 129.647827,388.370117" stroke-miterlimit="3" stroke-width="1.504829" stroke="#000000" fill="none"/>
     <g id="g10028" stroke-miterlimit="3" stroke-width="1.504829">
      <path id="path4599" d="m889.548584,315.445343c0,0 -83.447998,42.737427 -159.712585,42.737427c0,0 -0.502625,0 -0.502625,0c-76.264771,0 -159.712585,-42.737427 -159.712585,-42.737427" stroke-miterlimit="3" stroke-width="1.504829" stroke="#000000" fill="none"/>
      <g id="g6453" stroke-miterlimit="3" stroke-width="1.504829">
       <path d="m565.723572,360.775208c0,0 -4.44989,-25.079376 4.485962,-17.614166c57.720093,48.220154 112.60083,333.809296 123.367432,393.525421" id="path6449" stroke-miterlimit="3" stroke-width="1.504829" stroke="#000000" fill="none"/>
       <path id="path6451" d="m893.445801,360.775208c0,0 4.450012,-25.079376 -4.486023,-17.614166c-57.720215,48.220154 -112.60083,333.809296 -123.367493,393.525421" stroke-miterlimit="3" stroke-width="1.504829" stroke="#000000" fill="none"/>
      </g>
     </g>
    </g>
    <path id="path6457" d="m692.79248,646.720459c-2.798218,0.127502 -5.688843,0.885803 -8.772827,2.6073c-8.173401,4.56311 -7.633362,12.85022 -4.008057,22.306702c3.834595,10.002686 17.054932,16.812439 18.301331,25.058533c1.056824,6.989258 -2.40625,10.950806 -4.764221,11.877686c-9.436462,3.708252 -18.992249,-7.172791 -29.040527,-5.2146c-18.766479,3.656921 -4.242065,27.805603 0.907593,43.526733c5.23114,15.97052 -4.935303,37.207214 14.293335,40.19519c6.163574,0.957947 13.469727,-2.973267 20.040894,-12.312134c2.491821,-3.541199 8.684631,-4.608459 14.369019,-4.635071c-13.121094,67.189941 -62.600098,85.911865 -97.25531,24.479431c-15.749878,48.680847 -54.549561,78.65741 -98.994812,15.136597c-6.703186,50.611328 -47.201355,85.737427 -94.457123,21.220154c-5.680145,55.748596 -43.604279,78.901794 -81.222687,44.97522c-5.526215,-4.983887 -14.838165,-13.553955 -12.932007,-19.264709c4.00528,-12.000305 33.62561,12.296387 40.535583,-17.671448c3.183502,-13.807129 -9.740051,-19.782776 -26.242218,-36.79126c-15.065918,-15.528503 -33.076385,-55.393616 -50.518372,-49.031067c-21.321564,7.777527 -0.431244,45.674866 -13.537048,36.791382c-28.700424,-19.454346 -51.992569,-38.819214 -92.415253,-38.819214c-33.49855,0 -48.400787,18.259277 -48.400787,32.011353c0,19.630859 21.481522,16.732422 25.637299,4.779968c11.044968,-31.768311 46.657593,-4.587769 73.206207,29.911011c10.204803,13.260742 35.256287,33.866577 45.526978,40.919678c9.23349,6.340698 30.08728,10.063904 40.535553,18.322998c6.150085,4.861633 11.55127,13.084839 15.427856,20.206299c0.685822,0.303955 1.323364,0.578064 2.041931,0.941528c41.86441,21.177795 78.352417,11.397705 93.322723,-26.217346c37.91983,23.383179 69.792572,16.525085 89.768402,-22.813538c38.635254,27.906982 65.103882,23.793457 95.515869,-17.16449c42.368103,34.363037 75.559509,28.179382 109.960632,-29.476685c34.394287,57.626282 67.524475,63.833313 109.884888,29.476685c30.411865,40.957947 56.880493,45.071472 95.515808,17.16449c19.975769,39.338623 51.848572,46.196716 89.768372,22.813538c14.970215,37.614807 51.458374,47.395142 93.322876,26.217346c0.879028,-0.444641 1.670044,-0.803528 2.495728,-1.158752c3.670654,-7.34668 8.803833,-13.815857 14.293213,-19.989075c12.339111,-8.403259 27.838501,-11.461731 41.216431,-18.322998c10.270752,-7.053101 35.322144,-27.658936 45.526733,-40.919678c26.54895,-34.498779 62.161255,-61.679321 73.206299,-29.911011c4.155396,11.952454 25.637207,14.850891 25.637207,-4.779968c0,-13.752075 -14.901855,-32.011353 -48.400879,-32.011353c-40.422607,0 -63.714722,19.364868 -92.415161,38.819214c-13.105591,8.883484 7.784668,-29.013855 -13.536865,-36.791382c-17.442139,-6.362549 -35.452515,33.502563 -50.518188,49.031067c-16.502319,17.008484 -29.426147,22.984131 -26.242432,36.79126c6.909546,29.967834 36.291626,5.735657 40.535645,17.671448c2.267334,6.377258 -5.963623,13.41394 -12.478394,19.264709c-37.70752,33.863831 -75.542603,10.773376 -81.222412,-44.97522c-47.25592,64.517273 -87.829651,29.391174 -94.532898,-21.220154c-44.445435,63.520752 -83.245361,33.54425 -98.994751,-15.136597c-34.655273,61.432434 -84.361328,42.638123 -97.482239,-24.551697c5.734863,-0.126221 11.729248,0.740784 14.520264,4.707336c6.570862,9.338867 13.952698,13.270081 20.116516,12.312134c19.228638,-2.987976 8.98645,-24.22467 14.217773,-40.19519c5.149658,-15.72113 19.749695,-39.869812 0.983154,-43.526733c-10.048584,-1.958191 -19.60437,8.922852 -29.040527,5.2146c-2.357971,-0.92688 -5.821167,-4.888428 -4.764526,-11.877686c1.24646,-8.246094 14.466858,-15.055847 18.301697,-25.058533c3.625,-9.456482 4.089905,-17.743591 -4.083862,-22.306702c-16.447205,-9.182068 -27.674988,8.523193 -45.678467,8.328857c-14.627441,0.157837 -24.855713,-11.488586 -36.980957,-10.936157z" stroke-miterlimit="2" stroke-width="2" stroke="#000000" fill-rule="evenodd" fill="#e1cc68"/>
    <path d="m748.311523,729.951782c0,16.928406 -8.298767,30.651855 -18.535828,30.651855c-10.237,0 -18.535767,-13.72345 -18.535767,-30.651855c0,-16.928589 8.298767,-30.651978 18.535767,-30.651978c10.237061,0 18.535828,13.723389 18.535828,30.651978z" id="path9122" stroke-miterlimit="2" stroke-width="1.617101" stroke="#000000" fill-rule="nonzero" fill="#ffffff"/>
    <path d="m341.089233,898.220825c41.864594,21.177795 78.340363,11.408752 93.31076,-26.20636c37.9198,23.383362 69.746002,16.569275 89.721649,-22.769348c38.635376,27.90686 65.142029,23.773621 95.553833,-17.184509c42.723877,34.651611 76.09436,28.081116 110.806274,-30.932129" id="path23819" stroke-miterlimit="2" stroke-width="2" stroke="#000000" fill="none"/>
    <path id="path27504" d="m1105.748901,961.992554c-34.839722,-20.105286 -132.768433,-78.736938 -374.204285,-78.736938l-3.115967,0c-241.362671,0 -339.268738,58.634521 -374.103546,78.736938" stroke-miterlimit="3" stroke-width="2" stroke="#000000" fill="none"/>
    <path d="m1050.085938,740.344421l-7.56189,-2.634399l-35.791565,-12.418518l12.967285,-34.372314l2.750977,-7.241516l-7.561707,-2.634644l-38.010498,-13.267151l-7.561401,-2.63446l-2.751221,7.241394l-13.067139,34.372925l-35.79187,-12.418579l-7.561768,-2.634521l-2.750854,7.241577l-13.754211,36.303833l-2.750916,7.241516l7.561768,2.63446l35.791565,12.418762l-12.966919,34.372131l-2.751038,7.241516l7.561462,2.63446l38.010437,13.267151l7.56189,2.634583l2.750916,-7.241638l13.067261,-34.373047l35.791565,12.418579l7.56189,2.634644l2.750732,-7.241638l13.75415,-36.30365l2.751099,-7.241516l0,0.000061z" id="path2905" stroke-miterlimit="4" stroke-linecap="round" stroke-width="2" stroke="#000000" fill-rule="evenodd" fill="#baa035"/>
    <path d="m1039.773315,744.951538l-43.353271,-15.053223l15.717773,-41.613586l-38.010193,-13.267334l-15.818604,41.614807l-43.353271,-15.053223l-13.753967,36.303772l43.353149,15.053162l-15.717957,41.613708l38.010437,13.267212l15.818359,-41.614563l43.353271,15.05304l13.754272,-36.303772l0,0z" id="path2907" stroke-miterlimit="4" stroke-linecap="round" stroke-width="1.329054" stroke="#000000" fill-rule="evenodd" fill="#ce2b37"/>
    <path id="path7385" d="m979.427673,686.02832l21.208069,7.411865l-12.664551,33.496948l-3.116028,8.08551l8.543518,2.983765l34.877319,12.031982l-7.638672,20.117554l-34.877502,-12.031921l-8.442871,-2.984009l-3.115967,8.085449l-12.664612,33.496948l-21.207581,-7.315491l12.664307,-33.496826l3.116028,-8.18158l-8.442932,-2.887817l-34.877625,-12.127991l7.538391,-20.02124l34.877686,12.031982l8.442688,2.984009l3.115967,-8.085449l12.664368,-33.59314l0,-0.000549z" stroke-miterlimit="4" stroke-linecap="round" stroke-width="1.329055" stroke="#000000" fill-rule="evenodd" fill="#ffffff"/>
    <path id="path9174" d="m409.083221,740.344421l7.56189,-2.634399l35.791473,-12.418518l-12.966919,-34.372314l-2.750946,-7.241516l7.561554,-2.634644l38.010345,-13.267151l7.561554,-2.63446l2.751282,7.241394l13.067322,34.372925l35.791626,-12.418579l7.561768,-2.634521l2.751038,7.241577l13.753967,36.303833l2.751099,7.241516l-7.561646,2.63446l-35.791626,12.418762l12.96698,34.372131l2.750793,7.241516l-7.561523,2.63446l-38.010254,13.267151l-7.56189,2.634583l-2.750946,-7.241638l-13.06723,-34.373047l-35.791595,12.418579l-7.561768,2.634644l-2.751099,-7.241638l-13.753967,-36.30365l-2.751282,-7.241516l0,0.000061z" stroke-miterlimit="4" stroke-linecap="round" stroke-width="2" stroke="#000000" fill-rule="evenodd" fill="#baa035"/>
    <path id="path9176" d="m419.395844,744.951538l43.353485,-15.053223l-15.717987,-41.613586l38.010437,-13.267334l15.818512,41.614807l43.353088,-15.053223l13.75415,36.303772l-43.353333,15.053162l15.717957,41.613708l-38.010437,13.267212l-15.818298,-41.614563l-43.353149,15.05304l-13.754089,-36.303772l-0.000336,0z" stroke-miterlimit="4" stroke-linecap="round" stroke-width="1.329054" stroke="#000000" fill-rule="evenodd" fill="#ce2b37"/>
    <path d="m479.741638,686.02832l-21.207947,7.411865l12.664429,33.496948l3.115997,8.08551l-8.543518,2.983765l-34.87735,12.031982l7.638763,20.117554l34.877563,-12.031921l8.442993,-2.984009l3.115662,8.085449l12.664581,33.496948l21.208069,-7.315491l-12.664459,-33.496826l-3.116089,-8.18158l8.443115,-2.887817l34.877472,-12.127991l-7.53833,-20.02124l-34.877716,12.031982l-8.442902,2.984009l-3.115753,-8.085449l-12.664581,-33.59314l0,-0.000549z" id="path9178" stroke-miterlimit="4" stroke-linecap="round" stroke-width="1.329055" stroke="#000000" fill-rule="evenodd" fill="#ffffff"/>
    <rect transform="matrix(2.06464 1.20903 -2.06464 1.20903 -1166.9 -1307.95)" y="449.454124" x="1368.104329" height="31.639585" width="31.639585" id="rect4624" stroke-miterlimit="2" stroke-width="2.119836" stroke="#000000" fill-rule="nonzero" fill="#e1ce6b"/>
    <rect id="rect4635" width="22.420912" height="22.420912" x="1375.324103" y="457.854395" transform="matrix(2.06729 1.20486 -2.06729 1.20486 -1166.9 -1307.95)" stroke-miterlimit="2" stroke-width="1.061069" stroke="#000000" fill-rule="nonzero" fill="#ce2b37"/>
    <path id="rect4637" d="m356.633179,970.033508l64.495331,10.454346l-51.089691,64.967224l-6.908234,-33.141113l-6.497406,-42.280457l0,0z" stroke-miterlimit="2" stroke-width="2" stroke="#000000" fill-rule="nonzero" fill="#e1ce6b"/>
    <path id="rect4639" d="m356.967041,981.044556l45.241272,7.192078l-34.812561,42.97113l-22.473969,-21.143738l12.045258,-29.01947z" stroke-miterlimit="2" stroke="#000000" fill-rule="nonzero" fill="#ce2b37"/>
    <path d="m1103.330566,970.065369l-64.547852,10.152649l50.757324,65.2052l7.077515,-33.108093l6.713135,-42.249512l-0.000122,-0.000244z" id="path4643" stroke-miterlimit="2" stroke-width="2" stroke="#000000" fill-rule="nonzero" fill="#e1ce6b"/>
    <path d="m1102.940308,981.074646l-45.277588,6.980286l34.592773,43.133545l22.581909,-21.038452l-11.897339,-29.075378l0.000244,0z" id="path4645" stroke-miterlimit="2" stroke="#000000" fill-rule="nonzero" fill="#ce2b37"/>
    <path d="m572.683411,940.734619c3.055176,15.793518 -13.555481,31.992065 -37.100647,36.180664c-23.545288,4.18811 -45.109253,-5.219666 -48.164429,-21.013245c-3.055267,-15.793579 13.555267,-31.991943 37.100525,-36.180298c23.545288,-4.188538 45.109314,5.219299 48.164551,21.012878z" id="path25666" stroke-miterlimit="2" stroke-width="1.394569" stroke="#000000" fill-rule="nonzero" fill="#e1ce6b"/>
    <path d="m558.817322,943.150696c1.844849,9.443237 -9.53894,19.411926 -25.426392,22.266235c-15.887451,2.853943 -30.262115,-2.48761 -32.106903,-11.930847c-1.844818,-9.443298 9.538971,-19.411987 25.426361,-22.266174c15.887268,-2.854065 30.262207,2.487671 32.106934,11.930786z" id="path25664" stroke-miterlimit="2" stroke-width="0.926729" stroke="#000000" fill-rule="nonzero" fill="#808000"/>
    <path id="path4657" d="m886.863892,940.734619c-3.055298,15.793335 13.555359,31.992065 37.100647,36.180664c23.545166,4.18811 45.109253,-5.219666 48.164429,-21.013245c3.055115,-15.793579 -13.555481,-31.991943 -37.100708,-36.180298c-23.545471,-4.188538 -45.109253,5.219299 -48.164368,21.012878z" stroke-miterlimit="2" stroke-width="1.394569" stroke="#000000" fill-rule="nonzero" fill="#e1ce6b"/>
    <path id="path4659" d="m900.72998,943.150696c-1.844666,9.443237 9.539001,19.412109 25.42627,22.266235c15.887634,2.854004 30.262451,-2.48761 32.107178,-11.930847c1.844788,-9.443298 -9.539124,-19.411987 -25.426514,-22.266174c-15.887512,-2.854065 -30.262024,2.487671 -32.106934,11.930786z" stroke-miterlimit="2" stroke-width="0.926729" stroke="#000000" fill-rule="nonzero" fill="#808000"/>
    <path id="path4687" d="m614.594849,896.872742c-5.592224,0 -10.133972,4.349426 -10.133972,9.704712c0,5.35553 4.541748,9.704895 10.133972,9.704895c5.592285,0 10.133911,-4.349365 10.133911,-9.704895c0,-5.355286 -4.541626,-9.704712 -10.133911,-9.704712zm3.478699,25.493286c-5.59198,0 -10.133789,4.349365 -10.133789,9.70459c0,5.355591 4.541809,9.705017 10.133789,9.705017c5.592102,0 10.134033,-4.349426 10.134033,-9.705017c0,-5.355225 -4.541626,-9.70459 -10.134033,-9.70459zm2.874023,26.07251c-5.592468,0 -10.134094,4.349487 -10.134094,9.704895c0,5.355347 4.541626,9.704712 10.134094,9.704712c5.592163,0 10.133789,-4.349365 10.133789,-9.704712c0,-5.355408 -4.541626,-9.704895 -10.133789,-9.704895z" stroke-miterlimit="2" stroke-width="2" stroke="#000000" fill-rule="nonzero" fill="#e1ce6b"/>
    <path id="path4700" d="m844.952393,896.872742c-5.592163,0 -10.13385,4.349426 -10.13385,9.704712c0,5.35553 4.541687,9.704895 10.13385,9.704895c5.592102,0 10.133972,-4.349365 10.133972,-9.704895c0,-5.355286 -4.54187,-9.704712 -10.133972,-9.704712zm-3.479004,25.493286c-5.59198,0 -10.133728,4.349365 -10.133728,9.70459c0,5.355591 4.541748,9.705017 10.133728,9.705017c5.592346,0 10.134094,-4.349426 10.134094,-9.705017c0,-5.355225 -4.541748,-9.70459 -10.134094,-9.70459zm-2.873596,26.07251c-5.592163,0 -10.13385,4.349487 -10.13385,9.704895c0,5.355347 4.541687,9.704712 10.13385,9.704712c5.592102,0 10.133728,-4.349365 10.133728,-9.704712c0,-5.355408 -4.541626,-9.704895 -10.133728,-9.704895z" stroke-miterlimit="2" stroke-width="2" stroke="#000000" fill-rule="nonzero" fill="#e1ce6b"/>
    <path id="path4709" d="m439.217682,932.722473c-0.672668,-0.018555 -1.353424,0.029297 -2.042114,0.144958c-5.508148,0.925415 -9.209351,5.950623 -8.243073,11.225708c0.966248,5.27478 6.21402,8.819458 11.722076,7.894226c5.508118,-0.925415 9.209503,-5.950989 8.243256,-11.225769c-0.845551,-4.615356 -4.971313,-7.911133 -9.680145,-8.039124zm8.016174,24.551697c-0.672485,-0.018555 -1.353455,0.029297 -2.041718,0.14502c-5.508362,0.925415 -9.209534,5.950684 -8.243408,11.225647c0.966461,5.27478 6.21405,8.819641 11.722076,7.894226c5.508148,-0.925354 9.209625,-6.023193 8.243286,-11.298157c-0.845428,-4.615601 -4.9711,-7.838867 -9.680237,-7.966736zm7.562866,25.131287c-0.672729,-0.018677 -1.353699,0.029053 -2.041931,0.144775c-5.508148,0.925415 -9.209686,5.950806 -8.243408,11.225769c0.966339,5.274841 6.213837,8.819519 11.722168,7.894104c5.508118,-0.925354 9.209534,-5.950867 8.243286,-11.225647c-0.845551,-4.615601 -4.97113,-7.911194 -9.680115,-8.039001z" stroke-miterlimit="2" stroke-width="2" stroke="#000000" fill-rule="nonzero" fill="#e1ce6b"/>
    <path id="path4717" d="m1020.329468,932.722473c-4.709045,0.127991 -8.834412,3.423767 -9.680115,8.039124c-0.966187,5.27478 2.734985,10.300354 8.243347,11.225769c5.508179,0.925232 10.755737,-2.619446 11.722046,-7.894226c0.966309,-5.275085 -2.735229,-10.300293 -8.243347,-11.225708c-0.688416,-0.115662 -1.36908,-0.163208 -2.041931,-0.144958zm-8.016174,24.551697c-4.709045,0.127869 -8.834595,3.351135 -9.680115,7.966736c-0.96637,5.274963 2.734802,10.372803 8.243164,11.298157c5.508118,0.925415 10.755737,-2.619446 11.722107,-7.894226c0.966309,-5.274963 -2.735291,-10.300232 -8.243225,-11.225647c-0.688599,-0.115723 -1.369202,-0.163269 -2.041931,-0.14502zm-7.562744,25.131287c-4.709045,0.127808 -8.834595,3.423401 -9.680115,8.039001c-0.96637,5.27478 2.735046,10.300293 8.243347,11.225647c5.507935,0.925415 10.755737,-2.619263 11.722046,-7.894104c0.96637,-5.274963 -2.734985,-10.300354 -8.243347,-11.225769c-0.688599,-0.115723 -1.369263,-0.163086 -2.041931,-0.144775z" stroke-miterlimit="2" stroke-width="2" stroke="#000000" fill-rule="nonzero" fill="#e1ce6b"/>
    <path id="path8235" d="m692.80603,646.720459c-2.798035,0.127502 -5.688843,0.885803 -8.772644,2.6073c-6.706543,3.744141 -7.513367,10.034424 -5.596375,17.381836l0.302551,0.072144c10.667725,-19.107605 34.77124,8.401184 51.274597,8.401184c16.460754,0 40.414551,-27.364258 51.123413,-8.545898c1.875366,-7.317383 1.013794,-13.576904 -5.671936,-17.309509c-16.447205,-9.181885 -27.674927,8.523132 -45.678223,8.328979c-14.627869,0.157654 -24.85614,-11.488464 -36.981384,-10.936218l0,0.000183z" stroke-miterlimit="2" stroke-width="2" stroke="#000000" fill-rule="evenodd" fill="#9b8726"/>
    <path id="path4325" d="m661.496765,704.22522c-14.079163,5.623535 -0.911987,27.867554 3.932739,42.657593c5.231323,15.97052 -4.935425,37.207214 14.293274,40.19519c1.214417,0.188904 2.492004,0.122498 3.781372,-0.072266c-0.047058,-0.069824 -0.302673,-0.506958 -0.302673,-0.506958c-16.252197,-3.493225 4.724915,-17.339966 -2.571289,-42.802429c-7.30719,-25.502075 -31.313721,-18.785889 -20.645935,-37.515747l1.512512,-1.955383l0,0z" stroke-miterlimit="2" stroke-width="2" stroke="#000000" fill-rule="nonzero" fill="#9b8726"/>
    <path d="m798.050354,704.22522c14.079407,5.623535 0.912109,27.867554 -3.932678,42.657593c-5.23114,15.97052 4.935425,37.207214 -14.293274,40.19519c-1.214478,0.188904 -2.492126,0.122498 -3.781433,-0.072266c0.047241,-0.069824 0.302734,-0.506958 0.302734,-0.506958c16.252075,-3.493225 -4.724731,-17.339966 2.571228,-42.802429c7.307251,-25.502075 31.313904,-18.785889 20.645996,-37.515747l-1.512573,-1.955383l0,0z" id="path4347" stroke-miterlimit="2" stroke-width="2" stroke="#000000" fill-rule="nonzero" fill="#9b8726"/>
    <path d="m367.395752,1031.207764l-22.473969,-21.143738l12.045258,-29.01947" id="path4400" stroke-miterlimit="2" stroke-width="2" stroke="#000000" fill="none"/>
    <path id="path4402" d="m1092.255737,1031.188477l22.581665,-21.038452l-11.897095,-29.075378" stroke-miterlimit="2" stroke-width="2" stroke="#000000" fill="none"/>
    <path id="path4517" d="m171.404556,776.335388c6.762802,-3.551025 6.046356,-8.786987 43.382813,-5.448853" stroke-miterlimit="3" stroke-width="2" stroke="#000000" fill="none"/>
    <path id="path4390" d="m286.079346,832.441833c13.915161,10.440002 20.077576,25.159668 13.764343,32.876709c-6.313477,7.717163 -22.711792,5.509705 -36.626923,-4.93042c-13.915024,-10.440125 -20.077576,-25.159546 -13.764221,-32.876648c6.313461,-7.717224 22.711792,-5.509705 36.626801,4.930359z" stroke-miterlimit="2" stroke-width="1.617101" stroke="#000000" fill-rule="nonzero" fill="#ffffff"/>
    <path id="path4529" d="m300.041046,752.966492c15.302734,20.196655 10.606903,47.015137 22.83905,60.836121c11.423553,12.907227 40.087952,10.271484 46.056366,28.245117c0.31369,-0.963562 0.652161,-1.934998 0.907562,-3.041687c3.183502,-13.807129 -9.815796,-19.782776 -26.318054,-36.79126c-13.053558,-13.454468 -28.300018,-45.151306 -43.484924,-49.248291l0,0z" stroke-miterlimit="3" stroke-width="2" stroke="#000000" fill-rule="nonzero" fill="#9b8726"/>
    <path d="m1287.764282,776.335388c-6.762573,-3.551025 -6.046143,-8.786987 -43.382446,-5.448853" id="path4544" stroke-miterlimit="3" stroke-width="2" stroke="#000000" fill="none"/>
    <path d="m1173.0896,832.441833c-13.915161,10.440002 -20.077637,25.159668 -13.764282,32.876709c6.313477,7.717163 22.711914,5.509644 36.627075,-4.93042c13.914795,-10.440125 20.077515,-25.159546 13.763916,-32.876892c-6.313232,-7.71698 -22.711548,-5.509644 -36.626709,4.930603z" id="path4546" stroke-miterlimit="2" stroke-width="1.617101" stroke="#000000" fill-rule="nonzero" fill="#ffffff"/>
    <path d="m1159.128174,752.966492c-15.302734,20.196655 -10.606934,47.015137 -22.839111,60.836121c-11.423584,12.907227 -40.087769,10.271484 -46.056519,28.245117c-0.313721,-0.963562 -0.652344,-1.934998 -0.907471,-3.041687c-3.183472,-13.807129 9.815796,-19.782776 26.317749,-36.79126c13.053955,-13.454468 28.300415,-45.151306 43.485352,-49.248291z" id="path4548" stroke-miterlimit="3" stroke-width="2" stroke="#000000" fill-rule="nonzero" fill="#9b8726"/>
    <path id="path4257" d="m1018.817017,601.600342c1.680359,3.802429 2.647095,7.925842 2.647095,12.312195c0,17.545837 -14.878235,31.794006 -33.200134,31.794006c-6.751831,0 -13.05835,-1.966248 -18.301453,-5.286926c5.311401,10.413208 16.433716,17.599121 29.343079,17.599121c18.043945,0 32.670471,-14.007263 32.670471,-31.287109c0,-10.278259 -5.162842,-19.422668 -13.159058,-25.131287z" fill-rule="nonzero" fill="#37abc8"/>
    <path d="m1034.652588,546.34137c1.266724,2.866394 1.995483,5.974976 1.995483,9.281799c0,13.2276 -11.216431,23.968994 -25.028931,23.968994c-5.090271,0 -9.844788,-1.482483 -13.79718,-3.985657c4.00415,7.850098 12.389221,13.267456 22.121399,13.267456c13.602905,0 24.629517,-10.559692 24.629517,-23.58667c0,-7.74884 -3.892212,-14.642517 -9.920288,-18.945923l0,0z" id="path4269" fill-rule="nonzero" fill="#37abc8"/>
    <path id="path4275" d="m1042.943726,493.678162c1.053467,2.383942 1.659302,4.969208 1.659302,7.719391c0,11.000824 -9.328247,19.934235 -20.815796,19.934235c-4.233032,0 -8.187439,-1.232727 -11.474548,-3.314941c3.330322,6.52887 10.303772,11.034302 18.397522,11.034302c11.313232,0 20.483765,-8.782104 20.483765,-19.616608c0,-6.444275 -3.236938,-12.177643 -8.250488,-15.756683l0.000244,0.000305z" fill-rule="nonzero" fill="#37abc8"/>
    <path d="m1035.537964,440.995453c0.956421,2.164795 1.506836,4.511993 1.506836,7.009186c0,9.988556 -8.469971,18.100037 -18.900452,18.100037c-3.84375,0 -7.43396,-1.119446 -10.418823,-3.009857c3.023804,5.92804 9.355713,10.01886 16.704773,10.01886c10.272217,0 18.598999,-7.973907 18.598999,-17.811432c0,-5.851257 -2.939209,-11.057068 -7.491333,-14.306793l0,0z" id="path4281" fill-rule="nonzero" fill="#37abc8"/>
    <path id="path4288" d="m1012.307068,397.641754c0.810547,1.833649 1.27655,3.822144 1.27655,5.937469c0,8.461853 -7.175293,15.333099 -16.010986,15.333099c-3.256165,0 -6.297546,-0.948242 -8.825989,-2.549561c2.561523,5.02179 7.925171,8.487274 14.151001,8.487274c8.70166,0 15.755554,-6.755157 15.755554,-15.088593c0,-4.957001 -2.48999,-9.366882 -6.34613,-12.119843l0,0.000153z" fill-rule="nonzero" fill="#37abc8"/>
    <path d="m974.557434,365.964325c0.572876,1.296143 0.902222,2.701508 0.902222,4.196564c0,5.980255 -5.071045,10.836884 -11.315918,10.836884c-2.301453,0 -4.450867,-0.670197 -6.237976,-1.802002c1.810364,3.549133 5.601379,5.998383 10.001221,5.998383c6.150574,0 11.135864,-4.774353 11.135864,-10.664093c0,-3.503204 -1.759644,-6.619995 -4.485046,-8.565735l-0.000366,0z" id="path4294" fill-rule="nonzero" fill="#37abc8"/>
    <path id="path4300" d="m929.263,347.351929c0.380737,0.861511 0.600037,1.795959 0.600037,2.789917c0,3.976471 -3.371765,7.205353 -7.524048,7.205353c-1.530273,0 -2.959534,-0.445587 -4.147583,-1.19809c1.203674,2.359741 3.724426,3.988312 6.650024,3.988312c4.08905,0 7.403687,-3.174408 7.403687,-7.090393c0,-2.329376 -1.169983,-4.40152 -2.982117,-5.695313l0,0.000214z" fill-rule="nonzero" fill="#37abc8"/>
    <path d="m479.363495,601.596191c1.680206,3.802307 2.64679,7.92572 2.64679,12.312134c0,17.545837 -14.878265,31.793945 -33.199738,31.793945c-6.752167,0 -13.058746,-1.966309 -18.301575,-5.286804c5.311432,10.413086 16.433685,17.598999 29.342804,17.598999c18.044098,0 32.670532,-14.00708 32.670532,-31.287109c0,-10.278259 -5.162994,-19.422607 -13.158813,-25.131165z" id="path4306" fill-rule="nonzero" fill="#37abc8"/>
    <path id="path4312" d="m453.926636,546.34137c1.266693,2.866394 1.995422,5.974976 1.995422,9.281799c0,13.2276 -11.216339,23.968994 -25.028809,23.968994c-5.090088,0 -9.844696,-1.482483 -13.797211,-3.985657c4.004089,7.850098 12.389191,13.267456 22.121124,13.267456c13.60318,0 24.629883,-10.559692 24.629883,-23.58667c0,-7.74884 -3.892426,-14.642517 -9.92041,-18.945923l0,0z" fill-rule="nonzero" fill="#37abc8"/>
    <path d="m440.684662,493.678162c1.053619,2.383942 1.659546,4.969208 1.659546,7.719391c0,11.000824 -9.3284,19.934235 -20.815704,19.934235c-4.23349,0 -8.187622,-1.232727 -11.474823,-3.314941c3.3302,6.52887 10.303772,11.034302 18.397552,11.034302c11.313263,0 20.483795,-8.782104 20.483795,-19.616608c0,-6.444275 -3.237152,-12.177643 -8.250366,-15.756683l0,0.000305z" id="path4318" fill-rule="nonzero" fill="#37abc8"/>
    <path id="path4324" d="m445.839691,440.995453c0.956635,2.164795 1.506897,4.511993 1.507019,7.009186c0,9.988556 -8.469971,18.100037 -18.900299,18.100037c-3.843811,0 -7.434204,-1.119446 -10.418823,-3.009857c3.023529,5.92804 9.355377,10.01886 16.704437,10.01886c10.272522,0 18.599121,-7.973907 18.599121,-17.811432c0,-5.851257 -2.939178,-11.057068 -7.49118,-14.306793l-0.000275,0z" fill-rule="nonzero" fill="#37abc8"/>
    <path d="m465.67572,397.641754c0.810364,1.833649 1.27655,3.822144 1.27655,5.937469c0,8.461853 -7.175201,15.333099 -16.011108,15.333099c-3.256287,0 -6.297668,-0.948242 -8.826111,-2.549561c2.561554,5.02179 7.925415,8.487274 14.15097,8.487274c8.702057,0 15.755707,-6.755157 15.755707,-15.088593c0,-4.957001 -2.48996,-9.366882 -6.346008,-12.119843l0,0.000153z" id="path4330" fill-rule="nonzero" fill="#37abc8"/>
    <path id="path4336" d="m497.908325,365.964325c0.572906,1.296143 0.902161,2.701508 0.902161,4.196564c0,5.980255 -5.071045,10.836884 -11.315857,10.836884c-2.301392,0 -4.451019,-0.670197 -6.237976,-1.802002c1.810486,3.549133 5.60144,5.998383 10.001434,5.998383c6.150269,0 11.135559,-4.774353 11.135559,-10.664093c0,-3.503204 -1.759644,-6.619995 -4.485016,-8.565735l-0.000305,0z" fill-rule="nonzero" fill="#37abc8"/>
    <path d="m538.747131,347.351929c0.38092,0.861511 0.599915,1.795959 0.599915,2.789917c0,3.976471 -3.371826,7.205353 -7.523865,7.205353c-1.530212,0 -2.959351,-0.445587 -4.147461,-1.19809c1.203613,2.359741 3.724304,3.988312 6.649597,3.988312c4.089417,0 7.403992,-3.174408 7.403992,-7.090393c0,-2.329376 -1.170288,-4.40152 -2.982178,-5.695313l0,0.000214z" id="path4342" fill-rule="nonzero" fill="#37abc8"/>
    <path d="m744.316711,446.636292c1.268982,2.871796 1.998962,5.985931 1.998962,9.298859c0,13.252014 -11.236877,24.013306 -25.074768,24.013306c-5.099792,0 -9.862915,-1.485107 -13.822815,-3.993134c4.01178,7.864716 12.41217,13.292023 22.161865,13.292023c13.628235,0 24.675415,-10.579163 24.675415,-23.630157c0,-7.763 -3.899536,-14.669403 -9.938965,-18.980896l0.000305,0z" id="path4408" fill-rule="nonzero" fill="#37abc8"/>
    <path id="path4415" d="m742.088867,504.494507c1.077393,2.437592 1.696899,5.080719 1.696899,7.892761c0,11.248108 -9.53772,20.382141 -21.283203,20.382141c-4.328613,0 -8.371399,-1.260559 -11.732666,-3.389404c3.405212,6.675476 10.535156,11.282288 18.810791,11.282288c11.567627,0 20.944092,-8.979614 20.944092,-20.05719c0,-6.588989 -3.309692,-12.451324 -8.43573,-16.110596l-0.000183,0z" fill-rule="nonzero" fill="#37abc8"/>
    <path d="m738.482178,556.394714c0.766663,1.734558 1.207458,3.615234 1.207458,5.616272c0,8.003601 -6.786865,14.503113 -15.144531,14.503113c-3.079956,0 -5.956787,-0.897034 -8.348267,-2.411743c2.422852,4.75 7.496399,8.028015 13.385071,8.028015c8.230896,0 14.903076,-6.389465 14.903076,-14.272095c0,-4.688538 -2.355164,-8.85968 -6.002808,-11.463562z" id="path4421" fill-rule="nonzero" fill="#37abc8"/>
    <path id="path4427" d="m735.93634,596.618469c0.547302,1.238403 0.861938,2.580994 0.861938,4.009399c0,5.713623 -4.845093,10.353333 -10.811218,10.353333c-2.198669,0 -4.252258,-0.64032 -5.959656,-1.721436c1.729614,3.390747 5.351318,5.730835 9.555115,5.730835c5.876099,0 10.638794,-4.561157 10.638794,-10.188171c0,-3.347107 -1.681152,-6.324768 -4.284973,-8.18396l0,0z" fill-rule="nonzero" fill="#37abc8"/>
    <path d="m733.814941,632.859619c0.364258,0.824646 0.573914,1.718689 0.573914,2.670044c0,3.805115 -3.226624,6.895142 -7.200073,6.895142c-1.464355,0 -2.832214,-0.426331 -3.968994,-1.146423c1.151672,2.258301 3.564026,3.816528 6.363525,3.816528c3.913208,0 7.085388,-3.037598 7.085388,-6.785278c0,-2.229004 -1.11969,-4.21228 -2.85376,-5.450195l0,0.000183z" id="path4433" fill-rule="nonzero" fill="#37abc8"/>
    <path d="m216.478455,682.363464c1.680328,3.802429 2.646881,7.925598 2.646881,12.31189c0,17.545837 -14.87825,31.79425 -33.199921,31.79425c-6.751953,0 -13.058655,-1.966492 -18.301483,-5.286987c5.311325,10.413208 16.433792,17.599121 29.342896,17.599121c18.044144,0 32.670547,-14.00708 32.670547,-31.287292c0,-10.278198 -5.163101,-19.422668 -13.15892,-25.130981z" id="path4439" fill-rule="nonzero" fill="#37abc8"/>
    <path id="path4457" d="m202.555481,616.990906c1.253799,2.837402 1.975067,5.914124 1.975067,9.187256c0,13.09259 -11.102066,23.724487 -24.773499,23.724487c-5.038269,0 -9.744308,-1.467102 -13.656616,-3.944885c3.96347,7.770142 12.262878,13.132324 21.895599,13.132324c13.464523,0 24.378662,-10.452026 24.378662,-23.346252c0,-7.669617 -3.852646,-14.493164 -9.819214,-18.752686l0,-0.000244z" fill-rule="nonzero" fill="#37abc8"/>
    <path d="m202.847,559.075806c1.047073,2.369324 1.649246,4.938599 1.649246,7.672119c0,10.933472 -9.271118,19.812134 -20.688019,19.812134c-4.207458,0 -8.137405,-1.225281 -11.404526,-3.294556c3.309799,6.48877 10.240601,10.966675 18.284805,10.966675c11.244141,0 20.358231,-8.728455 20.358231,-19.496277c0,-6.404907 -3.217133,-12.103149 -8.199631,-15.660095l-0.000107,0z" id="path4464" fill-rule="nonzero" fill="#37abc8"/>
    <path id="path4470" d="m218.246918,502.473083c0.982376,2.223419 1.547577,4.634064 1.547577,7.198822c0,10.25882 -8.699158,18.589508 -19.411438,18.589508c-3.947784,0 -7.635208,-1.149719 -10.700684,-3.091309c3.105576,6.088196 9.608566,10.289978 17.156586,10.289978c10.550079,0 19.101746,-8.189758 19.101746,-18.293152c0,-6.009644 -3.018723,-11.35614 -7.693787,-14.693848l0,0z" fill-rule="nonzero" fill="#37abc8"/>
    <path d="m249.043655,454.868713c0.775772,1.755341 1.221863,3.658752 1.221863,5.683624c0,8.09967 -6.868134,14.677002 -15.325867,14.677002c-3.116943,0 -6.028275,-0.907623 -8.448593,-2.440552c2.452026,4.807007 7.586304,8.124207 13.545578,8.124207c8.32959,0 15.081635,-6.465973 15.081635,-14.443054c0,-4.744537 -2.383438,-8.96582 -6.074615,-11.601135l0,-0.000092z" id="path4476" fill-rule="nonzero" fill="#37abc8"/>
    <path id="path4482" d="m296.596344,418.781403c0.775757,1.755066 1.221863,3.658478 1.221863,5.683533c0,8.099548 -6.868164,14.677002 -15.325867,14.677002c-3.116974,0 -6.02829,-0.907715 -8.448578,-2.440643c2.451874,4.807007 7.586243,8.124298 13.545563,8.124298c8.32959,0 15.081421,-6.466156 15.081421,-14.443054c0,-4.744751 -2.38324,-8.965912 -6.074402,-11.601135l0,0z" fill-rule="nonzero" fill="#37abc8"/>
    <path d="m344.139862,399.05835c0.54306,1.228851 0.855408,2.561432 0.855408,3.979034c0,5.670532 -4.808441,10.27536 -10.729675,10.27536c-2.182312,0 -4.220459,-0.635406 -5.914978,-1.708557c1.716644,3.365234 5.311066,5.687775 9.483307,5.687775c5.831818,0 10.558777,-4.526917 10.558777,-10.111572c0,-3.321716 -1.66861,-6.277222 -4.252838,-8.12204z" id="path4488" fill-rule="nonzero" fill="#37abc8"/>
    <path id="path4494" d="m394.384033,390.466003c0.54306,1.228943 0.855316,2.561401 0.855316,3.979126c0,5.670593 -4.808533,10.275543 -10.729797,10.275543c-2.182068,0 -4.220337,-0.63559 -5.914886,-1.708771c1.716461,3.365448 5.311218,5.687805 9.483429,5.687805c5.831482,0 10.558655,-4.526917 10.558655,-10.111694c0,-3.321808 -1.668793,-6.277191 -4.252716,-8.122009z" fill-rule="nonzero" fill="#37abc8"/>
    <path d="m571.882019,407.18689c0.471802,1.068024 0.743286,2.226166 0.743286,3.458282c0,4.928467 -4.178955,8.930573 -9.325378,8.930573c-1.896667,0 -3.667969,-0.552216 -5.140808,-1.484955c1.492188,2.924896 4.616089,4.943237 8.242126,4.943237c5.068359,0 9.176941,-3.934418 9.176941,-8.788208c0,-2.887024 -1.450378,-5.455536 -3.696533,-7.058929l0.000366,0z" id="path4500" fill-rule="nonzero" fill="#37abc8"/>
    <path id="path4527" d="m1281.701904,682.363464c1.679932,3.802429 2.646729,7.925598 2.646729,12.31189c0,17.545837 -14.878052,31.79425 -33.199707,31.79425c-6.752319,0 -13.058838,-1.966492 -18.301514,-5.286987c5.311401,10.413208 16.433472,17.599121 29.342896,17.599121c18.043823,0 32.670654,-14.00708 32.670654,-31.287292c0,-10.278198 -5.163208,-19.422668 -13.159058,-25.130981z" fill-rule="nonzero" fill="#37abc8"/>
    <path d="m1285.723755,616.990906c1.253906,2.837402 1.974976,5.914124 1.975342,9.187256c0,13.09259 -11.102173,23.724487 -24.773682,23.724487c-5.038452,0 -9.744263,-1.467102 -13.656616,-3.944885c3.963379,7.770142 12.262817,13.132324 21.89563,13.132324c13.4646,0 24.37854,-10.452026 24.37854,-23.346252c0,-7.669617 -3.852295,-14.493164 -9.819092,-18.752686l-0.000122,-0.000244z" id="path4533" fill-rule="nonzero" fill="#37abc8"/>
    <path id="path4539" d="m1280.631592,559.075806c1.046997,2.369324 1.649292,4.938599 1.649292,7.672119c0,10.933472 -9.270996,19.812134 -20.688232,19.812134c-4.207275,0 -8.137085,-1.225281 -11.404541,-3.294556c3.309937,6.48877 10.241089,10.966675 18.285156,10.966675c11.243774,0 20.358276,-8.728455 20.358276,-19.496277c0,-6.404907 -3.217529,-12.103149 -8.199951,-15.660095z" fill-rule="nonzero" fill="#37abc8"/>
    <path d="m1263.731079,502.473083c0.982666,2.223419 1.547729,4.634064 1.547729,7.198822c0,10.25882 -8.698853,18.589508 -19.411255,18.589508c-3.947754,0 -7.635376,-1.149719 -10.700562,-3.091309c3.105591,6.088196 9.608276,10.289978 17.156128,10.289978c10.550171,0 19.101807,-8.189758 19.101807,-18.293152c0,-6.009644 -3.018433,-11.35614 -7.693848,-14.693848z" id="path4545" fill-rule="nonzero" fill="#37abc8"/>
    <path id="path4551" d="m1228.134277,454.868713c0.775513,1.755341 1.221802,3.658752 1.221802,5.683624c0,8.09967 -6.868286,14.677002 -15.326172,14.677002c-3.116699,0 -6.027832,-0.907623 -8.448486,-2.440552c2.451904,4.807007 7.586304,8.124207 13.545654,8.124207c8.32959,0 15.081665,-6.465973 15.081665,-14.443054c0,-4.744537 -2.383667,-8.96582 -6.074463,-11.601135l0,-0.000092z" fill-rule="nonzero" fill="#37abc8"/>
    <path id="path4576" d="m898.244934,407.18689c0.472107,1.068024 0.74353,2.226166 0.74353,3.458282c0,4.928467 -4.178833,8.930573 -9.325256,8.930573c-1.896606,0 -3.668213,-0.552216 -5.140747,-1.484955c1.492004,2.924896 4.616089,4.943237 8.242004,4.943237c5.06842,0 9.176758,-3.934418 9.176758,-8.788208c0,-2.887024 -1.450195,-5.455536 -3.696289,-7.058929l0,0z" fill-rule="nonzero" fill="#37abc8"/>
    <path id="path20103" d="m1150.043945,430.372467c0,11.388916 9.640625,20.621399 21.533203,20.621399c11.892212,0 21.533081,-9.232483 21.533081,-20.621399c0,-11.388977 -9.640869,-20.62149 -21.533081,-20.62149c-11.892578,0 -21.533203,9.232513 -21.533203,20.62149z" stroke-miterlimit="3" stroke-width="1.504829" stroke="#000000" fill-rule="nonzero" fill="#ffffff"/>
    <path d="m1180.581543,418.781403c0.775635,1.755066 1.221802,3.658478 1.221802,5.683533c0,8.099548 -6.868408,14.677002 -15.326416,14.677002c-3.116577,0 -6.027954,-0.907715 -8.448242,-2.440643c2.451904,4.807007 7.586304,8.124298 13.545288,8.124298c8.329712,0 15.081909,-6.466156 15.081909,-14.443054c0,-4.744751 -2.383789,-8.965912 -6.074341,-11.601135l0,0z" id="path4557" fill-rule="nonzero" fill="#37abc8"/>
    <path d="m1104.734497,407.173492c0,8.778809 7.431641,15.895569 16.598633,15.895569c9.16687,0 16.598633,-7.11676 16.598633,-15.895569c0,-8.779053 -7.431763,-15.895905 -16.598633,-15.895905c-9.166992,0 -16.598633,7.116852 -16.598633,15.895905z" id="path20105" stroke-miterlimit="3" stroke-width="1.504829" stroke="#000000" fill-rule="nonzero" fill="#ffffff"/>
    <path id="path4564" d="m1127.637085,399.05835c0.543335,1.228851 0.855469,2.561432 0.855469,3.979034c0,5.670532 -4.808472,10.27536 -10.729736,10.27536c-2.181885,0 -4.220215,-0.635406 -5.914917,-1.708557c1.716675,3.365234 5.311279,5.687775 9.483643,5.687775c5.831421,0 10.558716,-4.526917 10.558716,-10.111572c0,-3.321716 -1.668823,-6.277222 -4.25293,-8.12204l-0.000244,0z" fill-rule="nonzero" fill="#37abc8"/>
    <path id="path20107" d="m1054.490845,398.580994c0,8.779053 7.431396,15.895813 16.598511,15.895813c9.166748,0 16.598389,-7.11676 16.598389,-15.895813c0,-8.778809 -7.431641,-15.89566 -16.598389,-15.89566c-9.167114,0 -16.598511,7.116852 -16.598511,15.89566z" stroke-miterlimit="3" stroke-width="1.504829" stroke="#000000" fill-rule="nonzero" fill="#ffffff"/>
    <path d="m1077.393433,390.466003c0.542969,1.228943 0.855347,2.561401 0.855347,3.979126c0,5.670593 -4.808594,10.275543 -10.729858,10.275543c-2.181885,0 -4.220093,-0.63559 -5.914673,-1.708771c1.716675,3.365448 5.311279,5.687805 9.483398,5.687805c5.831421,0 10.558594,-4.526917 10.558594,-10.111694c0,-3.321808 -1.668579,-6.277191 -4.252686,-8.122009l-0.000122,0z" id="path4570" fill-rule="nonzero" fill="#37abc8"/>
    <g id="g4662">
     <path d="m632.861694,772.793213c0,10.531921 -8.9151,19.069458 -19.912598,19.069458c-10.997498,0 -19.91272,-8.537537 -19.91272,-19.069458c0,-10.531738 8.915222,-19.069397 19.91272,-19.069397c10.997498,0 19.912598,8.537659 19.912598,19.069397z" id="path4664" stroke-miterlimit="3" stroke-width="2.068021" stroke="#000000" fill-rule="nonzero" fill="#ffffff"/>
     <path id="path4666" d="m621.848206,761.337341c0.766663,1.734802 1.207458,3.616089 1.207458,5.617249c0,8.005127 -6.787842,14.505493 -15.146606,14.505493c-3.080566,0 -5.957825,-0.896973 -8.349731,-2.412048c2.423157,4.750671 7.497559,8.029297 13.387085,8.029297c8.232361,0 14.905518,-6.390625 14.905518,-14.274353c0,-4.689148 -2.355591,-8.861267 -6.003662,-11.465637l-0.000061,0z" fill-rule="nonzero" fill="#37abc8"/>
    </g>
    <g id="g4668">
     <path id="path4670" d="m866.13269,772.793213c0,10.531921 -8.9151,19.069458 -19.912659,19.069458c-10.997437,0 -19.912537,-8.537537 -19.912537,-19.069458c0,-10.531738 8.9151,-19.069397 19.912537,-19.069397c10.997559,0 19.912659,8.537659 19.912659,19.069397z" stroke-miterlimit="3" stroke-width="2.068021" stroke="#000000" fill-rule="nonzero" fill="#ffffff"/>
     <path d="m855.119263,761.337341c0.766602,1.734802 1.20752,3.616089 1.20752,5.617249c0,8.005127 -6.787842,14.505493 -15.146729,14.505493c-3.080566,0 -5.957825,-0.896973 -8.349731,-2.412048c2.42334,4.750671 7.497681,8.029297 13.387146,8.029297c8.2323,0 14.905457,-6.390625 14.905457,-14.274353c0,-4.689148 -2.355591,-8.861267 -6.00354,-11.465637l-0.000122,0z" id="path4672" fill-rule="nonzero" fill="#37abc8"/>
    </g>
    <g id="g4658">
     <path id="path4654" d="m434.083527,809.571289c0,10.53186 -8.915222,19.069702 -19.912689,19.069702c-10.997345,0 -19.912689,-8.537842 -19.912689,-19.069702c0,-10.531616 8.915344,-19.069458 19.912689,-19.069458c10.997467,0 19.912689,8.537842 19.912689,19.069458z" stroke-miterlimit="3" stroke-width="2.068021" stroke="#000000" fill-rule="nonzero" fill="#ffffff"/>
     <path d="m423.069946,798.115662c0.766754,1.734802 1.207672,3.616028 1.207672,5.617126c0,8.004944 -6.788055,14.505432 -15.14679,14.505432c-3.080627,0 -5.957764,-0.897034 -8.349823,-2.412048c2.42334,4.750916 7.49765,8.029175 13.387268,8.029175c8.2323,0 14.905426,-6.390442 14.905426,-14.273987c0,-4.689514 -2.355652,-8.861511 -6.00354,-11.465759l-0.000214,0.000061z" id="path4656" fill-rule="nonzero" fill="#37abc8"/>
    </g>
    <g id="g4674">
     <path d="m1064.911133,809.571289c0,10.53186 -8.915405,19.069702 -19.91272,19.069702c-10.997681,0 -19.912598,-8.537842 -19.912598,-19.069702c0,-10.531616 8.914917,-19.069458 19.912598,-19.069458c10.997314,0 19.91272,8.537842 19.91272,19.069458z" id="path4676" stroke-miterlimit="3" stroke-width="2.068021" stroke="#000000" fill-rule="nonzero" fill="#ffffff"/>
     <path id="path4678" d="m1053.897461,798.115662c0.766602,1.734802 1.20752,3.616028 1.20752,5.617126c0,8.004944 -6.787842,14.505432 -15.146729,14.505432c-3.080566,0 -5.957642,-0.897034 -8.349609,-2.412048c2.42334,4.750916 7.497559,8.029175 13.386841,8.029175c8.232788,0 14.90564,-6.390442 14.90564,-14.273987c0,-4.689514 -2.355591,-8.861511 -6.003662,-11.465759l0,0.000061z" fill-rule="nonzero" fill="#37abc8"/>
    </g>
   </g>
  </g>
  <image x="712" y="492" width="48" height="48" id="svg_1" xlink:href="images/logo.png"/>
 </g>
</svg>